inDegrees=yes
name=ik_S52_A03_T03
DataType=double
version=3
OpenSimVersion=4.3-2021-08-27-4bc7ad9
endheader
time	pelvis_tilt	pelvis_list	pelvis_rotation	pelvis_tx	pelvis_ty	pelvis_tz	hip_flexion_r	hip_adduction_r	hip_rotation_r	knee_angle_r	knee_angle_r_beta	ankle_angle_r	subtalar_angle_r	mtp_angle_r	hip_flexion_l	hip_adduction_l	hip_rotation_l	knee_angle_l	knee_angle_l_beta	ankle_angle_l	subtalar_angle_l	mtp_angle_l	lumbar_extension	lumbar_bending	lumbar_rotation	arm_flex_r	arm_add_r	arm_rot_r	elbow_flex_r	pro_sup_r	wrist_flex_r	wrist_dev_r	arm_flex_l	arm_add_l	arm_rot_l	elbow_flex_l	pro_sup_l	wrist_flex_l	wrist_dev_l
0	0	0	0	0	0.9399999999999999	0	0	0	0	0	0	0	0	0	0	0	0	0	0	0	0	0	0	0	0	0	0	0	0	89.99999999963507	0	0	0	0	0	0	89.99999999869995	0	0
0.02	-0.3205147733321256	2.51671753125616	-80.54081700333508	0	0.9399999999999999	0	2.227962817104153	-0.2341685633724487	-6.222648722318211	6.037416165086627	0.1053727903938912	0	0	0	3.461660362119192	1.101048366865958	-2.951810201813345	4.177957522786788	0.07291911478109547	0	0	0	0	0	0	1.773989441592105	-1.773989441592105	0.3154571103151479	8.713697240235399	89.68454290784955	0	0	1.773989441592105	-1.773989441592105	0.3154571103151479	8.713697240235399	89.6845429069736	0	0
0.04	-0.3649616375100733	2.465299873561452	-80.53754173125822	0	0.9399999999999999	0	2.166822282724995	-0.2622373731380897	-6.2617253459668	6.014319382969856	0.1049696754993378	0	0	0	3.023450253514781	1.18328467787137	-3.073426381977572	3.540913325171298	0.06180059605197976	0	0	0	0	0	0	1.784059109414295	-1.784059109414295	0.3174327477207519	8.802641228446193	89.68256727056223	0	0	1.784059109414295	-1.784059109414295	0.3174327477207519	8.802641228446193	89.68256726968663	0	0
0.06	-0.3881778841583555	2.376306662016654	-80.63373567922528	0	0.9399999999999999	0	2.059267355350139	-0.230358845574504	-6.176946979221005	6.00957639299033	0.1048868947078059	0	0	0	2.597768397372832	1.273341133758155	-3.125106432412005	3.067158795454246	0.05353201966217987	0	0	0	0	0	0	1.790468062331629	-1.790468062331629	0.3186866875630141	8.858295695147737	89.68131333079504	0	0	1.790468062331629	-1.790468062331629	0.3186866875630141	8.858295695147737	89.68131332991965	0	0
0.08	-0.4499544661594483	2.419442932712997	-80.75844662369659	0	0.9399999999999999	0	2.04542753743856	-0.2716645679805817	-6.172126878873756	5.916879952035083	0.1032690366082563	0	0	0	2.296272190638381	1.409798720221904	-2.93375024868598	2.451524961088699	0.04278718226582368	0	0	0	0	0	0	1.798538109905491	-1.798538109905491	0.3202727031197185	8.92964195588717	89.67972731533325	0	0	1.798538109905491	-1.798538109905491	0.3202727031197185	8.92964195588717	89.67972731445821	0	0
0.1	-0.4904390768215249	2.536158083938551	-80.81001027336603	0	0.9399999999999999	0	2.151445903434949	-0.2918238785651243	-6.149823566645748	5.837942578039157	0.1018913195291493	0	0	0	2.112339978514882	1.569654549944844	-2.608460192433912	1.957008633285298	0.03415624414078273	0	0	0	0	0	0	1.806190713958392	-1.806190713958392	0.3217763215555661	8.996981860681574	89.67822369698746	0	0	1.806190713958392	-1.806190713958392	0.3217763215555661	8.996981860681574	89.67822369611271	0	0
0.12	-0.505586735470692	2.669011413010143	-80.83713915601182	0	0.9399999999999999	0	2.148503775135609	-0.4703196804256971	-6.106712291605477	5.702903732741266	0.09953444706060983	0	0	0	2.269343138358094	1.622473048446399	-2.594237472161235	1.827887394205715	0.03190265338458925	0	0	0	0	0	0	1.810835929727963	-1.810835929727963	0.3226844471283982	9.036810245643814	89.67731557146897	0	0	1.810835929727963	-1.810835929727963	0.3226844471283982	9.036810245643814	89.67731557059443	0	0
0.14	-0.5068358298217022	2.733205213018519	-80.82457014766302	0	0.9399999999999999	0	2.14632622096437	-0.5555690993910816	-6.111555566362976	5.587841730922053	0.09752623628492886	0	0	0	2.003339154269083	1.799571824075957	-2.30084075388992	1.295088432891688	0.02260355725845359	0	0	0	0	0	0	1.817610631232315	-1.817610631232315	0.3240142618660163	9.095863046418751	89.67598575681095	0	0	1.817610631232315	-1.817610631232315	0.3240142618660163	9.095863046418751	89.67598575593671	0	0
0.16	-0.5881438846745932	2.958803050338076	-80.9147532640096	0	0.9399999999999999	0	2.353735017294987	-0.6453267438937086	-6.028593348574621	5.555406484947072	0.09696013444897121	0	0	0	1.91730845794995	1.843092418434918	-2.239785145214667	0.9640863947810192	0.01682648186261066	0	0	0	0	0	0	1.823326085264151	-1.823326085264151	0.3251349022503797	9.145312780511793	89.67486511649365	0	0	1.823326085264151	-1.823326085264151	0.3251349022503797	9.145312780511793	89.67486511561968	0	0
0.18	-0.6095772229829103	2.899305819291181	-80.97650482245639	0	0.9399999999999999	0	2.360654580417283	-0.8510902128345581	-5.757067608520677	5.617445406237807	0.09804291788988014	0	0	0	1.518943952438995	2.007012862420089	-2.12675507972765	0.3725786399846631	0.006502723990334965	0	0	0	0	0	0	1.833454414831315	-1.833454414831315	0.32712025141273	9.232543138437137	89.67287976745014	0	0	1.833454414831315	-1.833454414831315	0.32712025141273	9.232543138437137	89.67287976657656	0	0
0.2	-0.6298141827442274	2.799623617553317	-81.01724592999352	0	0.9399999999999999	0	2.263977148641094	-0.9873760094733961	-5.601919158093794	5.69802136503696	0.09944923366887665	0	0	0	0.7003041169204786	2.295555893748988	-1.987556657198868	-0.3342406133947451	-0.005833599197623764	0	0	0	0	0	0	1.845462607918594	-1.845462607918594	0.3294760145767538	9.335889556169935	89.67052400442714	0	0	1.845462607918594	-1.845462607918594	0.3294760145767538	9.335889556169935	89.67052400355402	0	0
0.22	-0.6867831545414249	2.744449029992027	-81.04429351716897	0	0.9399999999999999	0	2.23834632675536	-1.036522904925967	-5.417233737910996	5.698766866128073	0.0994622451174938	0	0	0	0.3750203637815335	2.445664784228983	-1.865876653716163	-1.059784913338174	-0.01849673610071391	0	0	0	0	0	0	1.85597221098052	-1.85597221098052	0.3315342700815252	9.425184162898075	89.66846574904558	0	0	1.85597221098052	-1.85597221098052	0.3315342700815252	9.425184162898075	89.66846574817284	0	0
0.24	-0.6847662441544504	2.737932500959231	-81.06787456081797	0	0.9399999999999999	0	2.254753157544449	-1.155994769668036	-5.217031702085485	5.726749767305591	0.09995063887730168	0	0	0	0.152751714675162	2.629439480691874	-1.719683384245287	-1.46488374074804	-0.02556704443498432	0	0	0	0	0	0	1.863128276262214	-1.863128276262214	0.332934465654515	9.485525416557868	89.6670655535563	0	0	1.863128276262214	-1.863128276262214	0.332934465654515	9.485525416557868	89.66706555268391	0	0
0.26	-0.7356208905035747	2.818821214413119	-81.0585277375031	0	0.9399999999999999	0	2.341407595907701	-1.148530319427075	-5.206623363456393	5.760561612819418	0.1005407669076936	0	0	0	0.102734293328222	2.794367685983105	-1.506961703931273	-1.808656694759232	-0.03156701436178666	0	0	0	0	0	0	1.869294497649966	-1.869294497649966	0.3341433658117434	9.537846296297207	89.66585665347144	0	0	1.869294497649966	-1.869294497649966	0.3341433658117434	9.537846296297207	89.6658566525992	0	0
0.28	-0.7623108284122319	2.888730946944887	-81.05475466433367	0	0.9399999999999999	0	2.432035381266572	-1.240372533034465	-5.056875892966597	5.774173507138115	0.1007783392809884	0	0	0	0.1120529828980759	2.887395859914797	-1.404898136259753	-1.848498489034851	-0.03226238485179844	0	0	0	0	0	0	1.8719605401816	-1.8719605401816	0.3346618209972221	9.559581700073338	89.66533819831696	0	0	1.8719605401816	-1.8719605401816	0.3346618209972221	9.559581700073338	89.66533819744477	0	0
0.3	-0.7765344909480315	2.967971857368398	-81.03572275100889	0	0.9399999999999999	0	2.506942465219677	-1.27631439020814	-5.077390549409592	5.842372370266978	0.101968633988704	0	0	0	0.2028062166520386	2.928330672231388	-1.367365432994705	-1.743679516133601	-0.03043294865611292	0	0	0	0	0	0	2.417273546629119	-2.417273546629119	0.4351344376442283	11.55984536519569	89.56486558757722	0	0	2.417273546629119	-2.417273546629119	0.4351344376442283	11.55984536519569	89.56486558672384	0	0
0.32	-0.9208710701266748	2.959251637923704	-80.98325908518936	0	0.9399999999999999	0	2.519776897357925	-1.413271071027599	-4.910704927640028	5.84483339757458	0.1020115870182032	0	0	0	0.1979219925428583	2.880199045080854	-1.178732458005204	-1.70971597450517	-0.02984017302905865	0	0	0	0	0	0	2.418662293138563	-2.418662293138563	0.4354007051840356	11.56978937877256	89.56459932005326	0	0	2.418662293138563	-2.418662293138563	0.4354007051840356	11.56978937877256	89.56459931919996	0	0
0.34	-1.020564469410404	2.887067503775049	-80.96524426883758	0	0.9399999999999999	0	2.478945803392985	-1.562253506141073	-4.921597931227304	5.892501257271803	0.1028435481172984	0	0	0	0.1556560608449867	2.778460515379732	-1.171378798496343	-1.686814421931934	-0.0294404655328371	0	0	0	0	0	0	2.419967518959104	-2.419967518959104	0.4356502854409002	11.5790166714751	89.56434973981128	0	0	2.419967518959104	-2.419967518959104	0.4356502854409002	11.5790166714751	89.56434973895799	0	0
0.36	-1.061118797741584	2.652131502935652	-80.92582965526067	0	0.9399999999999999	0	2.528756456601094	-1.87127753298685	-4.857942546800969	6.336111943646173	0.1105860151915631	0	0	0	0.07346387145402715	2.929352518867621	-1.006437901269585	-1.309603685764239	-0.02285689621283917	0	0	0	0	0	0	2.428245799675986	-2.428245799675986	0.4372628885423371	11.642542505915	89.56273713680621	0	0	2.428245799675986	-2.428245799675986	0.4372628885423371	11.642542505915	89.5627371359532	0	0
0.3800000000000001	-1.138165430919746	2.399360349934094	-80.86583929901759	0	0.9399999999999999	0	2.417942959524614	-2.049292695717521	-4.860624318665138	6.851699140253714	0.119584709353492	0	0	0	-0.04284340210409578	2.922717385490787	-0.8189692502907637	-1.230811182055705	-0.0214817075972354	0	0	0	0	0	0	2.436781419149495	-2.436781419149495	0.438924100103688	11.70761656770368	89.5610759253441	0	0	2.436781419149495	-2.436781419149495	0.438924100103688	11.70761656770368	89.56107592449142	0	0
0.4000000000000001	-1.188663171607598	2.14956165420912	-80.82905384372019	0	0.9399999999999999	0	2.387005349368094	-2.343699512725437	-4.894824849279459	7.250496981889786	0.1265450447398885	0	0	0	-0.207293065792188	3.000847273408383	-0.4222324297434008	-0.8172034510770062	-0.01426289087995416	0	0	0	0	0	0	2.441867766170836	-2.441867766170836	0.4399146150706177	11.74639658371693	89.56008541043633	0	0	2.441867766170836	-2.441867766170836	0.4399146150706177	11.74639658371693	89.56008540958385	0	0
0.4200000000000001	-1.222586981755809	2.12255152046378	-80.85608570202625	0	0.9399999999999999	0	2.395017632358886	-2.34744385553968	-4.839657683141411	7.736048229957981	0.1350195127058462	0	0	0	-0.3086718350869284	3.121520261774284	-0.4577926688154474	-0.6589560043548441	-0.01150095190177812	0	0	0	0	0	0	2.452340810814141	-2.452340810814141	0.4419514708464849	11.8256240187607	89.55804855478216	0	0	2.452340810814141	-2.452340810814141	0.4419514708464849	11.8256240187607	89.55804855393001	0	0
0.4400000000000001	-1.225794627961978	2.101301329570511	-80.85226585634922	0	0.9399999999999999	0	2.717999296292776	-2.782981184390784	-4.916131961836373	8.344854673094632	0.1456451896459364	0	0	0	-0.4107234109069335	3.213117790322559	-0.453657349154516	-0.6460950522509029	-0.01127648594262306	0	0	0	0	0	0	2.462848165794352	-2.462848165794352	0.4439973445815978	11.90524866900244	89.55600268116929	0	0	2.462848165794352	-2.462848165794352	0.4439973445815978	11.90524866900244	89.55600268031749	0	0
